<?xml version="1.0" standalone="no"?>
<svg xmlns="http://www.w3.org/2000/svg" width="237.24000000000004" height="154.06027840725153" viewBox="0 0 237.24000000000004 154.06027840725153"><g fill="#f1333f" color="#f1333f" transform="translate(98.909 0) scale(0.9615385)"><svg width="41.0" height="52.0" x="0.0" y="0.0" viewBox="0 0 41 52"><path fill="currentColor" fill-rule="evenodd" d="M20.07.578C9.017.578 0 9.594 0 20.648c0 5.528 2.254 10.546 5.584 14.324l14.184-14.62 14.487 14.62c3.633-3.778 5.887-8.796 5.887-14.323C40.142 9.594 31.125.578 20.07.578m-6.639 43.446h5.978v-5.978h-5.978v5.978zm7.299 0h5.979v-5.978h-5.98v5.978zm-7.299 7.461h5.978v-5.978h-5.978v5.978zm7.299 0h5.979v-5.978h-5.98v5.978z"></path></svg></g><path fill="#353434" fill-rule="nonzero" d="M12.64 12.72Q20.48 13.16 20.48 19.52L20.48 19.52Q20.48 23.04 18.10 25.22Q15.72 27.40 10.88 27.40L10.88 27.40Q3 27.40 0 27.52L0 27.52Q0 26.36 0.20 25.80L0.20 25.80Q1.32 25.72 1.90 25.40Q2.48 25.08 2.74 24.26Q3 23.44 3 21.88L3 21.88L3 5.44Q3 3.44 2.42 2.74Q1.84 2.04 0.24 1.96L0.24 1.96Q0.04 1.40 0.04 0.24L0.04 0.24Q1.64 0.36 4.20 0.36L4.20 0.36L7.08 0.32Q8.04 0.28 9.92 0.28L9.92 0.28Q13.84 0.28 16.14 1.58Q18.44 2.88 18.44 6.12L18.44 6.12Q18.44 8.72 16.86 10.52Q15.28 12.32 12.64 12.72L12.64 12.72ZM14.36 7.32Q14.36 4.52 12.58 3.28Q10.80 2.04 8.40 2.04L8.40 2.04Q7.52 2.04 6.76 2.24L6.76 2.24L6.76 12.40L8 12.40Q14.36 12.40 14.36 7.32L14.36 7.32ZM10.48 25.68Q13.36 25.68 14.78 24.22Q16.20 22.76 16.20 20.08L16.20 20.08Q16.20 14.12 7.68 14.12L7.68 14.12L6.76 14.12L6.76 21.88Q6.76 23.56 7.06 24.34Q7.36 25.12 8.12 25.40Q8.88 25.68 10.48 25.68L10.48 25.68ZM37.28 27.76Q33.40 27.76 30.40 25.94Q27.40 24.12 25.74 20.94Q24.08 17.76 24.08 13.80L24.08 13.80Q24.08 9.80 25.82 6.66Q27.56 3.52 30.58 1.76Q33.60 0 37.28 0L37.28 0Q41.08 0 44.10 1.74Q47.12 3.48 48.82 6.62Q50.52 9.76 50.52 13.80L50.52 13.80Q50.52 17.72 48.82 20.90Q47.12 24.08 44.10 25.92Q41.08 27.76 37.28 27.76L37.28 27.76ZM38.08 25.80Q40.60 25.80 42.50 24.36Q44.40 22.92 45.40 20.42Q46.40 17.92 46.40 14.84L46.40 14.84Q46.40 11.28 45.10 8.32Q43.80 5.36 41.52 3.64Q39.24 1.92 36.44 1.92L36.44 1.92Q34.08 1.92 32.20 3.28Q30.32 4.64 29.26 7.08Q28.20 9.52 28.20 12.72L28.20 12.72Q28.20 16.16 29.38 19.16Q30.56 22.16 32.80 23.98Q35.04 25.80 38.08 25.80L38.08 25.80ZM64.76 25.60Q66.96 25.60 68.24 25.12Q69.52 24.64 70.28 23.60Q71.04 22.56 71.76 20.56L71.76 20.56Q72.92 20.92 73.52 21.52L73.52 21.52Q72.76 23.88 72.28 27.48L72.28 27.48Q69.16 27.40 64.52 27.40L64.52 27.40Q57.16 27.40 54.16 27.52L54.16 27.52Q54.16 26.36 54.36 25.80L54.36 25.80Q55.48 25.72 56.06 25.40Q56.64 25.08 56.90 24.26Q57.16 23.44 57.16 21.88L57.16 21.88L57.16 5.44Q57.16 3.44 56.58 2.74Q56 2.04 54.40 1.96L54.40 1.96Q54.20 1.40 54.20 0.24L54.20 0.24Q56.52 0.36 59.04 0.36L59.04 0.36Q61.48 0.36 63.88 0.24L63.88 0.24Q63.88 1.40 63.68 1.96L63.68 1.96Q62.56 2.04 61.98 2.34Q61.40 2.64 61.16 3.40Q60.92 4.16 60.92 5.56L60.92 5.56L60.92 21.88Q60.92 23.44 61.20 24.20Q61.48 24.96 62.24 25.28Q63 25.60 64.52 25.60L64.52 25.60L64.76 25.60ZM85.16 27.76Q82.84 27.76 81 27.14Q79.16 26.52 77.04 25.20L77.04 25.20Q77.40 22.96 77.40 19.52L77.40 19.52Q78.32 19.28 79.56 19.28L79.56 19.28Q79.72 22.48 81.18 24.16Q82.64 25.84 85.72 25.84L85.72 25.84Q88.32 25.84 89.58 24.70Q90.84 23.56 90.84 21.68L90.84 21.68Q90.84 20.12 90.04 19.04Q89.24 17.96 88.08 17.26Q86.92 16.56 84.84 15.60L84.84 15.60Q82.44 14.44 81 13.52Q79.56 12.60 78.54 11.06Q77.52 9.52 77.52 7.20L77.52 7.20Q77.52 3.84 79.68 1.92Q81.84 0 85.56 0L85.56 0Q87.52 0 89.32 0.50Q91.12 1 92.24 1.76L92.24 1.76Q92.24 5.32 92.48 7.04L92.48 7.04Q91.60 7.40 90.24 7.40L90.24 7.40Q89.68 4.12 88.56 2.94Q87.44 1.76 85.52 1.76L85.52 1.76Q83.40 1.76 82.20 2.80Q81 3.84 81 5.72L81 5.72Q81 7.28 81.82 8.40Q82.64 9.52 83.82 10.24Q85 10.96 87.08 12.00L87.08 12.00Q89.44 13.12 90.86 14.04Q92.28 14.96 93.28 16.44Q94.28 17.92 94.28 20.08L94.28 20.08Q94.28 22.16 93.30 23.90Q92.32 25.64 90.26 26.70Q88.20 27.76 85.16 27.76L85.16 27.76ZM123.32 25.80Q123.56 26.60 123.56 27.52L123.56 27.52Q121.16 27.40 119 27.40L119 27.40Q116.88 27.40 114.48 27.52L114.48 27.52Q114.48 26.36 114.76 25.80L114.76 25.80Q115.88 25.68 116.34 25.44Q116.80 25.20 116.80 24.64L116.80 24.64Q116.80 24.16 116.20 22.68L116.20 22.68L114.44 18.60Q108.08 18.60 103.88 18.76L103.88 18.76L102.80 21.52Q102.16 23.20 102.16 24.16L102.16 24.16Q102.16 24.96 102.66 25.34Q103.16 25.72 104.24 25.80L104.24 25.80Q104.52 26.48 104.52 27.52L104.52 27.52Q103.16 27.40 100.72 27.40L100.72 27.40Q99.68 27.40 97.40 27.52L97.40 27.52Q97.40 26.52 97.68 25.84L97.68 25.84Q98.72 25.64 99.32 24.80Q99.92 23.96 100.88 21.52L100.88 21.52L109.16 0.28Q109.84 0.12 110.72 0.12L110.72 0.12L120.24 21.96Q121.24 24.20 121.82 24.92Q122.40 25.64 123.32 25.80L123.32 25.80ZM104.60 16.80L113.68 16.80L110.64 9.68Q109.44 6.92 108.88 5.32L108.88 5.32Q108.44 6.68 107.36 9.64L107.36 9.64L104.60 16.80Z" transform="translate(0 65) scale(1.921)"></path><path fill="#353434" fill-rule="nonzero" d="M8.12 27.76Q5.80 27.76 3.96 27.14Q2.12 26.52 0 25.20L0 25.20Q0.36 22.96 0.36 19.52L0.36 19.52Q1.28 19.28 2.52 19.28L2.52 19.28Q2.68 22.48 4.14 24.16Q5.60 25.84 8.68 25.84L8.68 25.84Q11.28 25.84 12.54 24.70Q13.80 23.56 13.80 21.68L13.80 21.68Q13.80 20.12 13 19.04Q12.20 17.96 11.04 17.26Q9.88 16.56 7.80 15.60L7.80 15.60Q5.40 14.44 3.96 13.52Q2.52 12.60 1.50 11.06Q0.48 9.52 0.48 7.20L0.48 7.20Q0.48 3.84 2.64 1.92Q4.80 0 8.52 0L8.52 0Q10.48 0 12.28 0.50Q14.08 1 15.20 1.76L15.20 1.76Q15.20 5.32 15.44 7.04L15.44 7.04Q14.56 7.40 13.20 7.40L13.20 7.40Q12.64 4.12 11.52 2.94Q10.40 1.76 8.48 1.76L8.48 1.76Q6.36 1.76 5.16 2.80Q3.96 3.84 3.96 5.72L3.96 5.72Q3.96 7.28 4.78 8.40Q5.60 9.52 6.78 10.24Q7.96 10.96 10.04 12.00L10.04 12.00Q12.40 13.12 13.82 14.04Q15.24 14.96 16.24 16.44Q17.24 17.92 17.24 20.08L17.24 20.08Q17.24 22.16 16.26 23.90Q15.28 25.64 13.22 26.70Q11.16 27.76 8.12 27.76L8.12 27.76ZM46.28 25.80Q46.52 26.60 46.52 27.52L46.52 27.52Q44.12 27.40 41.96 27.40L41.96 27.40Q39.84 27.40 37.44 27.52L37.44 27.52Q37.44 26.36 37.72 25.80L37.72 25.80Q38.84 25.68 39.30 25.44Q39.76 25.20 39.76 24.64L39.76 24.64Q39.76 24.16 39.16 22.68L39.16 22.68L37.40 18.60Q31.04 18.60 26.84 18.76L26.84 18.76L25.76 21.52Q25.12 23.20 25.12 24.16L25.12 24.16Q25.12 24.96 25.62 25.34Q26.12 25.72 27.20 25.80L27.20 25.80Q27.48 26.48 27.48 27.52L27.48 27.52Q26.12 27.40 23.68 27.40L23.68 27.40Q22.64 27.40 20.36 27.52L20.36 27.52Q20.36 26.52 20.64 25.84L20.64 25.84Q21.68 25.64 22.28 24.80Q22.88 23.96 23.84 21.52L23.84 21.52L32.12 0.28Q32.80 0.12 33.68 0.12L33.68 0.12L43.20 21.96Q44.20 24.20 44.78 24.92Q45.36 25.64 46.28 25.80L46.28 25.80ZM27.56 16.80L36.64 16.80L33.60 9.68Q32.40 6.92 31.84 5.32L31.84 5.32Q31.40 6.68 30.32 9.64L30.32 9.64L27.56 16.80ZM60.36 25.60Q62.56 25.60 63.84 25.12Q65.12 24.64 65.88 23.60Q66.64 22.56 67.36 20.56L67.36 20.56Q68.52 20.92 69.12 21.52L69.12 21.52Q68.36 23.88 67.88 27.48L67.88 27.48Q64.76 27.40 60.12 27.40L60.12 27.40Q52.76 27.40 49.76 27.52L49.76 27.52Q49.76 26.36 49.96 25.80L49.96 25.80Q51.08 25.72 51.66 25.40Q52.24 25.08 52.50 24.26Q52.76 23.44 52.76 21.88L52.76 21.88L52.76 5.44Q52.76 3.44 52.18 2.74Q51.60 2.04 50 1.96L50 1.96Q49.80 1.40 49.80 0.24L49.80 0.24Q52.12 0.36 54.64 0.36L54.64 0.36Q57.08 0.36 59.48 0.24L59.48 0.24Q59.48 1.40 59.28 1.96L59.28 1.96Q58.16 2.04 57.58 2.34Q57 2.64 56.76 3.40Q56.52 4.16 56.52 5.56L56.52 5.56L56.52 21.88Q56.52 23.44 56.80 24.20Q57.08 24.96 57.84 25.28Q58.60 25.60 60.12 25.60L60.12 25.60L60.36 25.60ZM90.56 20.56Q91.72 20.92 92.32 21.52L92.32 21.52Q91.56 23.88 91.08 27.48L91.08 27.48Q87.96 27.40 82.52 27.40L82.52 27.40Q75.16 27.40 72.16 27.52L72.16 27.52Q72.16 26.36 72.36 25.80L72.36 25.80Q73.48 25.72 74.06 25.40Q74.64 25.08 74.88 24.28Q75.12 23.48 75.12 21.88L75.12 21.88L75.12 5.44Q75.12 3.44 74.54 2.74Q73.96 2.04 72.36 1.96L72.36 1.96Q72.16 1.40 72.16 0.24L72.16 0.24Q74.52 0.36 78.88 0.36L78.88 0.36Q86.16 0.36 90.12 0.24L90.12 0.24Q90.52 4.64 90.96 6.56L90.96 6.56Q90.36 7.04 89.16 7.04L89.16 7.04Q88.96 4.80 87.54 3.38Q86.12 1.96 82.60 1.96L82.60 1.96L78.88 1.96L78.88 12.92L81.40 12.92Q83.92 12.92 84.86 12.26Q85.80 11.60 85.84 9.68L85.84 9.68Q86.80 9.40 87.76 9.40L87.76 9.40Q87.68 10.76 87.68 13.76L87.68 13.76Q87.68 17.04 87.76 18.40L87.76 18.40Q86.68 18.40 85.92 18.20L85.92 18.20Q85.76 16.12 84.82 15.38Q83.88 14.64 81.40 14.64L81.40 14.64L78.88 14.64L78.88 21.88Q78.88 23.40 79.16 24.18Q79.44 24.96 80.22 25.28Q81 25.60 82.52 25.60L82.52 25.60L82.76 25.60Q85.52 25.60 87 25.04Q88.48 24.48 89.18 23.48Q89.88 22.48 90.56 20.56L90.56 20.56ZM104.80 27.76Q102.48 27.76 100.64 27.14Q98.80 26.52 96.68 25.20L96.68 25.20Q97.04 22.96 97.04 19.52L97.04 19.52Q97.96 19.28 99.20 19.28L99.20 19.28Q99.36 22.48 100.82 24.16Q102.28 25.84 105.36 25.84L105.36 25.84Q107.96 25.84 109.22 24.70Q110.48 23.56 110.48 21.68L110.48 21.68Q110.48 20.12 109.68 19.04Q108.88 17.96 107.72 17.26Q106.56 16.56 104.48 15.60L104.48 15.60Q102.08 14.44 100.64 13.52Q99.20 12.60 98.18 11.06Q97.16 9.52 97.16 7.20L97.16 7.20Q97.16 3.84 99.32 1.92Q101.48 0 105.20 0L105.20 0Q107.16 0 108.96 0.50Q110.76 1 111.88 1.76L111.88 1.76Q111.88 5.32 112.12 7.04L112.12 7.04Q111.24 7.40 109.88 7.40L109.88 7.40Q109.32 4.12 108.20 2.94Q107.08 1.76 105.16 1.76L105.16 1.76Q103.04 1.76 101.84 2.80Q100.64 3.84 100.64 5.72L100.64 5.72Q100.64 7.28 101.46 8.40Q102.28 9.52 103.46 10.24Q104.64 10.96 106.72 12.00L106.72 12.00Q109.08 13.12 110.50 14.04Q111.92 14.96 112.92 16.44Q113.92 17.92 113.92 20.08L113.92 20.08Q113.92 22.16 112.94 23.90Q111.96 25.64 109.90 26.70Q107.84 27.76 104.80 27.76L104.80 27.76ZM121.24 5.44Q121.24 3.44 120.66 2.74Q120.08 2.04 118.48 1.96L118.48 1.96Q118.28 1.40 118.28 0.24L118.28 0.24Q120.48 0.36 123.12 0.36L123.12 0.36Q125.56 0.36 127.96 0.24L127.96 0.24Q127.96 1.40 127.76 1.96L127.76 1.96Q126.16 2.04 125.58 2.74Q125 3.44 125 5.44L125 5.44L125 22.32Q125 24.32 125.58 25.02Q126.16 25.72 127.76 25.80L127.76 25.80Q127.96 26.36 127.96 27.52L127.96 27.52Q125.56 27.40 123.12 27.40L123.12 27.40Q120.32 27.40 118.28 27.52L118.28 27.52Q118.28 26.36 118.48 25.80L118.48 25.80Q120.08 25.72 120.66 25.02Q121.24 24.32 121.24 22.32L121.24 22.32L121.24 5.44ZM157.12 25.80Q157.36 26.60 157.36 27.52L157.36 27.52Q154.96 27.40 152.80 27.40L152.80 27.40Q150.68 27.40 148.28 27.52L148.28 27.52Q148.28 26.36 148.56 25.80L148.56 25.80Q149.68 25.68 150.14 25.44Q150.60 25.20 150.60 24.64L150.60 24.64Q150.60 24.16 150.00 22.68L150.00 22.68L148.24 18.60Q141.88 18.60 137.68 18.76L137.68 18.76L136.60 21.52Q135.96 23.20 135.96 24.16L135.96 24.16Q135.96 24.96 136.46 25.34Q136.96 25.72 138.04 25.80L138.04 25.80Q138.32 26.48 138.32 27.52L138.32 27.52Q136.96 27.40 134.52 27.40L134.52 27.40Q133.48 27.40 131.20 27.52L131.20 27.52Q131.20 26.52 131.48 25.84L131.48 25.84Q132.52 25.64 133.12 24.80Q133.72 23.96 134.68 21.52L134.68 21.52L142.96 0.28Q143.64 0.12 144.52 0.12L144.52 0.12L154.04 21.96Q155.04 24.20 155.62 24.92Q156.20 25.64 157.12 25.80L157.12 25.80ZM138.40 16.80L147.48 16.80L144.44 9.68Q143.24 6.92 142.68 5.32L142.68 5.32Q142.24 6.68 141.16 9.64L141.16 9.64L138.40 16.80ZM182.60 0.36Q184.76 0.36 186.40 0.24L186.40 0.24Q186.40 1.24 186.20 1.96L186.20 1.96Q185.28 1.96 184.78 2.48Q184.28 3 184.06 4.22Q183.84 5.44 183.84 7.64L183.84 7.64L183.84 27.40Q183.20 27.64 182.12 27.64L182.12 27.64L165.60 6.08L165.60 19.92Q165.60 22.24 165.84 23.48Q166.08 24.72 166.68 25.26Q167.28 25.80 168.36 25.80L168.36 25.80Q168.56 26.40 168.56 27.52L168.56 27.52Q166.76 27.40 164.60 27.40L164.60 27.40Q162.12 27.40 160.60 27.52L160.60 27.52Q160.60 26.40 160.80 25.80L160.80 25.80Q161.88 25.80 162.48 25.26Q163.08 24.72 163.32 23.48Q163.56 22.24 163.56 19.92L163.56 19.92L163.56 3.40L163.40 3.20Q162.84 2.52 162.34 2.28Q161.84 2.04 160.80 1.96L160.80 1.96Q160.60 1.24 160.60 0.24L160.60 0.24Q161.80 0.36 163.56 0.36L163.56 0.36Q165.16 0.36 166.24 0.24L166.24 0.24L181.80 20.88L181.80 7.64Q181.80 5.40 181.56 4.20Q181.32 3 180.72 2.48Q180.12 1.96 179.04 1.96L179.04 1.96Q178.84 0.80 178.84 0.24L178.84 0.24Q180.56 0.36 182.60 0.36L182.60 0.36ZM202.64 27.76Q198.76 27.76 195.76 25.94Q192.76 24.12 191.10 20.94Q189.44 17.76 189.44 13.80L189.44 13.80Q189.44 9.80 191.18 6.66Q192.92 3.52 195.94 1.76Q198.96 0 202.64 0L202.64 0Q206.44 0 209.46 1.74Q212.48 3.48 214.18 6.62Q215.88 9.76 215.88 13.80L215.88 13.80Q215.88 17.72 214.18 20.90Q212.48 24.08 209.46 25.92Q206.44 27.76 202.64 27.76L202.64 27.76ZM203.44 25.80Q205.96 25.80 207.86 24.36Q209.76 22.92 210.76 20.42Q211.76 17.92 211.76 14.84L211.76 14.84Q211.76 11.28 210.46 8.32Q209.16 5.36 206.88 3.64Q204.60 1.92 201.80 1.92L201.80 1.92Q199.44 1.92 197.56 3.28Q195.68 4.64 194.62 7.08Q193.56 9.52 193.56 12.72L193.56 12.72Q193.56 16.16 194.74 19.16Q195.92 22.16 198.16 23.98Q200.40 25.80 203.44 25.80L203.44 25.80ZM228.12 27.76Q225.80 27.76 223.96 27.14Q222.12 26.52 220.00 25.20L220.00 25.20Q220.36 22.96 220.36 19.52L220.36 19.52Q221.28 19.28 222.52 19.28L222.52 19.28Q222.68 22.48 224.14 24.16Q225.60 25.84 228.68 25.84L228.68 25.84Q231.28 25.84 232.54 24.70Q233.80 23.56 233.80 21.68L233.80 21.68Q233.80 20.12 233.00 19.04Q232.20 17.96 231.04 17.26Q229.88 16.56 227.80 15.60L227.80 15.60Q225.40 14.44 223.96 13.52Q222.52 12.60 221.50 11.06Q220.48 9.52 220.48 7.20L220.48 7.20Q220.48 3.84 222.64 1.92Q224.80 0 228.52 0L228.52 0Q230.48 0 232.28 0.50Q234.08 1 235.20 1.76L235.20 1.76Q235.20 5.32 235.44 7.04L235.44 7.04Q234.56 7.40 233.20 7.40L233.20 7.40Q232.64 4.12 231.52 2.94Q230.40 1.76 228.48 1.76L228.48 1.76Q226.36 1.76 225.16 2.80Q223.96 3.84 223.96 5.72L223.96 5.72Q223.96 7.28 224.78 8.40Q225.60 9.52 226.78 10.24Q227.96 10.96 230.04 12.00L230.04 12.00Q232.40 13.12 233.82 14.04Q235.24 14.96 236.24 16.44Q237.24 17.92 237.24 20.08L237.24 20.08Q237.24 22.16 236.26 23.90Q235.28 25.64 233.22 26.70Q231.16 27.76 228.12 27.76L228.12 27.76Z" transform="translate(0 126.301) scale(1)"></path></svg>